<svg version="1.1" xmlns="http://www.w3.org/2000/svg" xmlns:xlink="http://www.w3.org/1999/xlink" width="566.919921875" height="618"><defs/><g><text fill="#eeeeee" stroke="none" font-family="Arial" font-size="24px" font-style="normal" font-weight="normal" text-decoration="none" x="0" y="0">UNREGISTERED</text><text fill="#eeeeee" stroke="none" font-family="Arial" font-size="24px" font-style="normal" font-weight="normal" text-decoration="none" x="0" y="30">UNREGISTERED</text><text fill="#eeeeee" stroke="none" font-family="Arial" font-size="24px" font-style="normal" font-weight="normal" text-decoration="none" x="0" y="60">UNREGISTERED</text><text fill="#eeeeee" stroke="none" font-family="Arial" font-size="24px" font-style="normal" font-weight="normal" text-decoration="none" x="0" y="90">UNREGISTERED</text><text fill="#eeeeee" stroke="none" font-family="Arial" font-size="24px" font-style="normal" font-weight="normal" text-decoration="none" x="0" y="120">UNREGISTERED</text><text fill="#eeeeee" stroke="none" font-family="Arial" font-size="24px" font-style="normal" font-weight="normal" text-decoration="none" x="0" y="150">UNREGISTERED</text><text fill="#eeeeee" stroke="none" font-family="Arial" font-size="24px" font-style="normal" font-weight="normal" text-decoration="none" x="0" y="180">UNREGISTERED</text><text fill="#eeeeee" stroke="none" font-family="Arial" font-size="24px" font-style="normal" font-weight="normal" text-decoration="none" x="0" y="210">UNREGISTERED</text><text fill="#eeeeee" stroke="none" font-family="Arial" font-size="24px" font-style="normal" font-weight="normal" text-decoration="none" x="0" y="240">UNREGISTERED</text><text fill="#eeeeee" stroke="none" font-family="Arial" font-size="24px" font-style="normal" font-weight="normal" text-decoration="none" x="0" y="270">UNREGISTERED</text><text fill="#eeeeee" stroke="none" font-family="Arial" font-size="24px" font-style="normal" font-weight="normal" text-decoration="none" x="0" y="300">UNREGISTERED</text><text fill="#eeeeee" stroke="none" font-family="Arial" font-size="24px" font-style="normal" font-weight="normal" text-decoration="none" x="0" y="330">UNREGISTERED</text><text fill="#eeeeee" stroke="none" font-family="Arial" font-size="24px" font-style="normal" font-weight="normal" text-decoration="none" x="0" y="360">UNREGISTERED</text><text fill="#eeeeee" stroke="none" font-family="Arial" font-size="24px" font-style="normal" font-weight="normal" text-decoration="none" x="0" y="390">UNREGISTERED</text><text fill="#eeeeee" stroke="none" font-family="Arial" font-size="24px" font-style="normal" font-weight="normal" text-decoration="none" x="0" y="420">UNREGISTERED</text><text fill="#eeeeee" stroke="none" font-family="Arial" font-size="24px" font-style="normal" font-weight="normal" text-decoration="none" x="0" y="450">UNREGISTERED</text><text fill="#eeeeee" stroke="none" font-family="Arial" font-size="24px" font-style="normal" font-weight="normal" text-decoration="none" x="0" y="480">UNREGISTERED</text><text fill="#eeeeee" stroke="none" font-family="Arial" font-size="24px" font-style="normal" font-weight="normal" text-decoration="none" x="0" y="510">UNREGISTERED</text><text fill="#eeeeee" stroke="none" font-family="Arial" font-size="24px" font-style="normal" font-weight="normal" text-decoration="none" x="0" y="540">UNREGISTERED</text><text fill="#eeeeee" stroke="none" font-family="Arial" font-size="24px" font-style="normal" font-weight="normal" text-decoration="none" x="0" y="570">UNREGISTERED</text><text fill="#eeeeee" stroke="none" font-family="Arial" font-size="24px" font-style="normal" font-weight="normal" text-decoration="none" x="0" y="600">UNREGISTERED</text><text fill="#eeeeee" stroke="none" font-family="Arial" font-size="24px" font-style="normal" font-weight="normal" text-decoration="none" x="200" y="0">UNREGISTERED</text><text fill="#eeeeee" stroke="none" font-family="Arial" font-size="24px" font-style="normal" font-weight="normal" text-decoration="none" x="200" y="30">UNREGISTERED</text><text fill="#eeeeee" stroke="none" font-family="Arial" font-size="24px" font-style="normal" font-weight="normal" text-decoration="none" x="200" y="60">UNREGISTERED</text><text fill="#eeeeee" stroke="none" font-family="Arial" font-size="24px" font-style="normal" font-weight="normal" text-decoration="none" x="200" y="90">UNREGISTERED</text><text fill="#eeeeee" stroke="none" font-family="Arial" font-size="24px" font-style="normal" font-weight="normal" text-decoration="none" x="200" y="120">UNREGISTERED</text><text fill="#eeeeee" stroke="none" font-family="Arial" font-size="24px" font-style="normal" font-weight="normal" text-decoration="none" x="200" y="150">UNREGISTERED</text><text fill="#eeeeee" stroke="none" font-family="Arial" font-size="24px" font-style="normal" font-weight="normal" text-decoration="none" x="200" y="180">UNREGISTERED</text><text fill="#eeeeee" stroke="none" font-family="Arial" font-size="24px" font-style="normal" font-weight="normal" text-decoration="none" x="200" y="210">UNREGISTERED</text><text fill="#eeeeee" stroke="none" font-family="Arial" font-size="24px" font-style="normal" font-weight="normal" text-decoration="none" x="200" y="240">UNREGISTERED</text><text fill="#eeeeee" stroke="none" font-family="Arial" font-size="24px" font-style="normal" font-weight="normal" text-decoration="none" x="200" y="270">UNREGISTERED</text><text fill="#eeeeee" stroke="none" font-family="Arial" font-size="24px" font-style="normal" font-weight="normal" text-decoration="none" x="200" y="300">UNREGISTERED</text><text fill="#eeeeee" stroke="none" font-family="Arial" font-size="24px" font-style="normal" font-weight="normal" text-decoration="none" x="200" y="330">UNREGISTERED</text><text fill="#eeeeee" stroke="none" font-family="Arial" font-size="24px" font-style="normal" font-weight="normal" text-decoration="none" x="200" y="360">UNREGISTERED</text><text fill="#eeeeee" stroke="none" font-family="Arial" font-size="24px" font-style="normal" font-weight="normal" text-decoration="none" x="200" y="390">UNREGISTERED</text><text fill="#eeeeee" stroke="none" font-family="Arial" font-size="24px" font-style="normal" font-weight="normal" text-decoration="none" x="200" y="420">UNREGISTERED</text><text fill="#eeeeee" stroke="none" font-family="Arial" font-size="24px" font-style="normal" font-weight="normal" text-decoration="none" x="200" y="450">UNREGISTERED</text><text fill="#eeeeee" stroke="none" font-family="Arial" font-size="24px" font-style="normal" font-weight="normal" text-decoration="none" x="200" y="480">UNREGISTERED</text><text fill="#eeeeee" stroke="none" font-family="Arial" font-size="24px" font-style="normal" font-weight="normal" text-decoration="none" x="200" y="510">UNREGISTERED</text><text fill="#eeeeee" stroke="none" font-family="Arial" font-size="24px" font-style="normal" font-weight="normal" text-decoration="none" x="200" y="540">UNREGISTERED</text><text fill="#eeeeee" stroke="none" font-family="Arial" font-size="24px" font-style="normal" font-weight="normal" text-decoration="none" x="200" y="570">UNREGISTERED</text><text fill="#eeeeee" stroke="none" font-family="Arial" font-size="24px" font-style="normal" font-weight="normal" text-decoration="none" x="200" y="600">UNREGISTERED</text><text fill="#eeeeee" stroke="none" font-family="Arial" font-size="24px" font-style="normal" font-weight="normal" text-decoration="none" x="400" y="0">UNREGISTERED</text><text fill="#eeeeee" stroke="none" font-family="Arial" font-size="24px" font-style="normal" font-weight="normal" text-decoration="none" x="400" y="30">UNREGISTERED</text><text fill="#eeeeee" stroke="none" font-family="Arial" font-size="24px" font-style="normal" font-weight="normal" text-decoration="none" x="400" y="60">UNREGISTERED</text><text fill="#eeeeee" stroke="none" font-family="Arial" font-size="24px" font-style="normal" font-weight="normal" text-decoration="none" x="400" y="90">UNREGISTERED</text><text fill="#eeeeee" stroke="none" font-family="Arial" font-size="24px" font-style="normal" font-weight="normal" text-decoration="none" x="400" y="120">UNREGISTERED</text><text fill="#eeeeee" stroke="none" font-family="Arial" font-size="24px" font-style="normal" font-weight="normal" text-decoration="none" x="400" y="150">UNREGISTERED</text><text fill="#eeeeee" stroke="none" font-family="Arial" font-size="24px" font-style="normal" font-weight="normal" text-decoration="none" x="400" y="180">UNREGISTERED</text><text fill="#eeeeee" stroke="none" font-family="Arial" font-size="24px" font-style="normal" font-weight="normal" text-decoration="none" x="400" y="210">UNREGISTERED</text><text fill="#eeeeee" stroke="none" font-family="Arial" font-size="24px" font-style="normal" font-weight="normal" text-decoration="none" x="400" y="240">UNREGISTERED</text><text fill="#eeeeee" stroke="none" font-family="Arial" font-size="24px" font-style="normal" font-weight="normal" text-decoration="none" x="400" y="270">UNREGISTERED</text><text fill="#eeeeee" stroke="none" font-family="Arial" font-size="24px" font-style="normal" font-weight="normal" text-decoration="none" x="400" y="300">UNREGISTERED</text><text fill="#eeeeee" stroke="none" font-family="Arial" font-size="24px" font-style="normal" font-weight="normal" text-decoration="none" x="400" y="330">UNREGISTERED</text><text fill="#eeeeee" stroke="none" font-family="Arial" font-size="24px" font-style="normal" font-weight="normal" text-decoration="none" x="400" y="360">UNREGISTERED</text><text fill="#eeeeee" stroke="none" font-family="Arial" font-size="24px" font-style="normal" font-weight="normal" text-decoration="none" x="400" y="390">UNREGISTERED</text><text fill="#eeeeee" stroke="none" font-family="Arial" font-size="24px" font-style="normal" font-weight="normal" text-decoration="none" x="400" y="420">UNREGISTERED</text><text fill="#eeeeee" stroke="none" font-family="Arial" font-size="24px" font-style="normal" font-weight="normal" text-decoration="none" x="400" y="450">UNREGISTERED</text><text fill="#eeeeee" stroke="none" font-family="Arial" font-size="24px" font-style="normal" font-weight="normal" text-decoration="none" x="400" y="480">UNREGISTERED</text><text fill="#eeeeee" stroke="none" font-family="Arial" font-size="24px" font-style="normal" font-weight="normal" text-decoration="none" x="400" y="510">UNREGISTERED</text><text fill="#eeeeee" stroke="none" font-family="Arial" font-size="24px" font-style="normal" font-weight="normal" text-decoration="none" x="400" y="540">UNREGISTERED</text><text fill="#eeeeee" stroke="none" font-family="Arial" font-size="24px" font-style="normal" font-weight="normal" text-decoration="none" x="400" y="570">UNREGISTERED</text><text fill="#eeeeee" stroke="none" font-family="Arial" font-size="24px" font-style="normal" font-weight="normal" text-decoration="none" x="400" y="600">UNREGISTERED</text><g transform="translate(-46,-38) scale(1,1)"><rect fill="#C0C0C0" stroke="none" x="119" y="63" width="320.02880859375" height="80" opacity="0.2"/></g><g transform="translate(-46,-38) scale(1,1)"><rect fill="#ffffff" stroke="none" x="112" y="56" width="320.02880859375" height="80"/></g><g transform="translate(-46,-38) scale(1,1)"><path fill="none" stroke="#000000" d="M 112 56 L 432.02880859375 56 L 432.02880859375 136 L 112 136 L 112 56 Z Z" stroke-miterlimit="10"/></g><g transform="translate(-46,-38) scale(1,1)"><path fill="none" stroke="#000000" d="M 112 81 L 432.02880859375 81" stroke-miterlimit="10"/></g><g transform="translate(-46,-38) scale(1,1)"><path fill="none" stroke="#000000" d="M 112 91 L 432.02880859375 91" stroke-miterlimit="10"/></g><g transform="translate(-46,-38) scale(1,1)"><g><path fill="none" stroke="none"/><text fill="#000000" stroke="none" font-family="Arial" font-size="13px" font-style="normal" font-weight="bold" text-decoration="none" x="221.07763671875" y="75.5">FactoryGenerator</text></g></g><g transform="translate(-46,-38) scale(1,1)"><g><path fill="none" stroke="none"/><text fill="#000000" stroke="none" font-family="Arial" font-size="13px" font-style="normal" font-weight="normal" text-decoration="none" x="117" y="108.5">+static AbstractFactory generateFactory(FactoryType)</text></g></g><g transform="translate(-46,-38) scale(1,1)"><rect fill="#C0C0C0" stroke="none" x="559" y="55" width="50.919921875" height="44" opacity="0.2"/></g><g transform="translate(-46,-38) scale(1,1)"><rect fill="#ffffff" stroke="none" x="552" y="48" width="50.919921875" height="44"/></g><g transform="translate(-46,-38) scale(1,1)"><path fill="none" stroke="#000000" d="M 552 48 L 602.919921875 48 L 602.919921875 92 L 552 92 L 552 48 Z Z" stroke-miterlimit="10"/></g><g transform="translate(-46,-38) scale(1,1)"><path fill="none" stroke="#000000" d="M 552 73 L 602.919921875 73" stroke-miterlimit="10"/></g><g transform="translate(-46,-38) scale(1,1)"><path fill="none" stroke="#000000" d="M 552 83 L 602.919921875 83" stroke-miterlimit="10"/></g><g transform="translate(-46,-38) scale(1,1)"><g><path fill="none" stroke="none"/><text fill="#000000" stroke="none" font-family="Arial" font-size="13px" font-style="normal" font-weight="bold" text-decoration="none" x="558.6708984375" y="67.5">CLient</text></g></g><g transform="translate(-46,-38) scale(1,1)"><rect fill="#C0C0C0" stroke="none" x="119" y="215" width="179.88525390625" height="57" opacity="0.2"/></g><g transform="translate(-46,-38) scale(1,1)"><rect fill="#ffffff" stroke="none" x="112" y="208" width="179.88525390625" height="57"/></g><g transform="translate(-46,-38) scale(1,1)"><path fill="none" stroke="#000000" d="M 112 208 L 291.88525390625 208 L 291.88525390625 265 L 112 265 L 112 208 Z Z" stroke-miterlimit="10"/></g><g transform="translate(-46,-38) scale(1,1)"><path fill="none" stroke="#000000" d="M 112 233 L 291.88525390625 233" stroke-miterlimit="10"/></g><g transform="translate(-46,-38) scale(1,1)"><path fill="none" stroke="#000000" d="M 112 243 L 291.88525390625 243" stroke-miterlimit="10"/></g><g transform="translate(-46,-38) scale(1,1)"><g><path fill="none" stroke="none"/><text fill="#000000" stroke="none" font-family="Arial" font-size="13px" font-style="normal" font-weight="bold" text-decoration="none" x="156.429931640625" y="227.5">AbstractFactory</text></g></g><g transform="translate(-46,-38) scale(1,1)"><g><path fill="none" stroke="none"/><text fill="#000000" stroke="none" font-family="Arial" font-size="13px" font-style="normal" font-weight="normal" text-decoration="none" x="117" y="260.5">+produceDevice(DeviceType)</text></g></g><g transform="translate(-46,-38) scale(1,1)"><rect fill="#C0C0C0" stroke="none" x="63" y="327" width="111.96533203125" height="57" opacity="0.2"/></g><g transform="translate(-46,-38) scale(1,1)"><rect fill="#ffffff" stroke="none" x="56" y="320" width="111.96533203125" height="57"/></g><g transform="translate(-46,-38) scale(1,1)"><path fill="none" stroke="#000000" d="M 56 320 L 167.96533203125 320 L 167.96533203125 377 L 56 377 L 56 320 Z Z" stroke-miterlimit="10"/></g><g transform="translate(-46,-38) scale(1,1)"><path fill="none" stroke="#000000" d="M 56 345 L 167.96533203125 345" stroke-miterlimit="10"/></g><g transform="translate(-46,-38) scale(1,1)"><path fill="none" stroke="#000000" d="M 56 355 L 167.96533203125 355" stroke-miterlimit="10"/></g><g transform="translate(-46,-38) scale(1,1)"><g><path fill="none" stroke="none"/><text fill="#000000" stroke="none" font-family="Arial" font-size="13px" font-style="normal" font-weight="bold" text-decoration="none" x="70.430908203125" y="339.5">LaptopFactory</text></g></g><g transform="translate(-46,-38) scale(1,1)"><g><path fill="none" stroke="none"/><text fill="#000000" stroke="none" font-family="Arial" font-size="13px" font-style="normal" font-weight="normal" text-decoration="none" x="61" y="372.5">+produceDevice()</text></g></g><g transform="translate(-46,-38) scale(1,1)"><path fill="none" stroke="#000000" d="M 134 319 L 177 266" stroke-miterlimit="10"/></g><g transform="translate(-46,-38) scale(1,1)"><path fill="#FFFFFF" stroke="none" d="M 170.73210218982874 287.08823029657185 L 177 266 L 157.65629630871405 276.4795576005731"/></g><g transform="translate(-46,-38) scale(1,1)"><path fill="none" stroke="#000000" d="M 170.73210218982874 287.08823029657185 L 177 266 L 157.65629630871405 276.4795576005731 L 170.73210218982874 287.08823029657185" stroke-miterlimit="10"/></g><g transform="translate(-46,-38) scale(1,1)"><rect fill="#C0C0C0" stroke="none" x="271" y="329" width="111.96533203125" height="57" opacity="0.2"/></g><g transform="translate(-46,-38) scale(1,1)"><rect fill="#ffffff" stroke="none" x="264" y="322" width="111.96533203125" height="57"/></g><g transform="translate(-46,-38) scale(1,1)"><path fill="none" stroke="#000000" d="M 264 322 L 375.96533203125 322 L 375.96533203125 379 L 264 379 L 264 322 Z Z" stroke-miterlimit="10"/></g><g transform="translate(-46,-38) scale(1,1)"><path fill="none" stroke="#000000" d="M 264 347 L 375.96533203125 347" stroke-miterlimit="10"/></g><g transform="translate(-46,-38) scale(1,1)"><path fill="none" stroke="#000000" d="M 264 357 L 375.96533203125 357" stroke-miterlimit="10"/></g><g transform="translate(-46,-38) scale(1,1)"><g><path fill="none" stroke="none"/><text fill="#000000" stroke="none" font-family="Arial" font-size="13px" font-style="normal" font-weight="bold" text-decoration="none" x="279.1640625" y="341.5">MobileFactory</text></g></g><g transform="translate(-46,-38) scale(1,1)"><g><path fill="none" stroke="none"/><text fill="#000000" stroke="none" font-family="Arial" font-size="13px" font-style="normal" font-weight="normal" text-decoration="none" x="269" y="374.5">+produceDevice()</text></g></g><g transform="translate(-46,-38) scale(1,1)"><path fill="none" stroke="#000000" d="M 289 321 L 232 266" stroke-miterlimit="10"/></g><g transform="translate(-46,-38) scale(1,1)"><path fill="#FFFFFF" stroke="none" d="M 252.47242579677572 274.0547986936678 L 232 266 L 240.78058833085348 286.1717938856236"/></g><g transform="translate(-46,-38) scale(1,1)"><path fill="none" stroke="#000000" d="M 252.47242579677572 274.0547986936678 L 232 266 L 240.78058833085348 286.1717938856236 L 252.47242579677572 274.0547986936678" stroke-miterlimit="10"/></g><g transform="translate(-46,-38) scale(1,1)"><path fill="none" stroke="#000000" d="M 216 207 L 251 137" stroke-miterlimit="10"/></g><g transform="translate(-46,-38) scale(1,1)"><path fill="#FFFFFF" stroke="none" d="M 250.22022077900252 147.97232629693906 L 251 137 L 242.69000649504724 144.20721915496142 L 241.16130089900093 156.67739820199816"/></g><g transform="translate(-46,-38) scale(1,1)"><path fill="none" stroke="#000000" d="M 250.22022077900252 147.97232629693906 L 251 137 L 242.69000649504724 144.20721915496142 L 241.16130089900093 156.67739820199816 L 250.22022077900252 147.97232629693906" stroke-miterlimit="10"/></g><g transform="translate(-46,-38) scale(1,1)"><path fill="none" stroke="#000000" d="M 433 82 L 551 72" stroke-miterlimit="10"/></g><g transform="translate(-46,-38) scale(1,1)"><path fill="#FFFFFF" stroke="none" d="M 541.229087749082 77.05265017439962 L 551 72 L 540.5181584877158 68.66368489027853 L 529.0785772922675 73.85774768709597"/></g><g transform="translate(-46,-38) scale(1,1)"><path fill="none" stroke="#000000" d="M 541.229087749082 77.05265017439962 L 551 72 L 540.5181584877158 68.66368489027853 L 529.0785772922675 73.85774768709597 L 541.229087749082 77.05265017439962" stroke-miterlimit="10"/></g><g transform="translate(-46,-38) scale(1,1)"><rect fill="#C0C0C0" stroke="none" x="223" y="495" width="50.919921875" height="44" opacity="0.2"/></g><g transform="translate(-46,-38) scale(1,1)"><rect fill="#ffffff" stroke="none" x="216" y="488" width="50.919921875" height="44"/></g><g transform="translate(-46,-38) scale(1,1)"><path fill="none" stroke="#000000" d="M 216 488 L 266.919921875 488 L 266.919921875 532 L 216 532 L 216 488 Z Z" stroke-miterlimit="10"/></g><g transform="translate(-46,-38) scale(1,1)"><path fill="none" stroke="#000000" d="M 216 513 L 266.919921875 513" stroke-miterlimit="10"/></g><g transform="translate(-46,-38) scale(1,1)"><path fill="none" stroke="#000000" d="M 216 523 L 266.919921875 523" stroke-miterlimit="10"/></g><g transform="translate(-46,-38) scale(1,1)"><g><path fill="none" stroke="none"/><text fill="#000000" stroke="none" font-family="Arial" font-size="13px" font-style="normal" font-weight="bold" text-decoration="none" x="221.591796875" y="507.5">Device</text></g></g><g transform="translate(-46,-38) scale(1,1)"><rect fill="#C0C0C0" stroke="none" x="143" y="609" width="50.919921875" height="44" opacity="0.2"/></g><g transform="translate(-46,-38) scale(1,1)"><rect fill="#ffffff" stroke="none" x="136" y="602" width="50.919921875" height="44"/></g><g transform="translate(-46,-38) scale(1,1)"><path fill="none" stroke="#000000" d="M 136 602 L 186.919921875 602 L 186.919921875 646 L 136 646 L 136 602 Z Z" stroke-miterlimit="10"/></g><g transform="translate(-46,-38) scale(1,1)"><path fill="none" stroke="#000000" d="M 136 627 L 186.919921875 627" stroke-miterlimit="10"/></g><g transform="translate(-46,-38) scale(1,1)"><path fill="none" stroke="#000000" d="M 136 637 L 186.919921875 637" stroke-miterlimit="10"/></g><g transform="translate(-46,-38) scale(1,1)"><g><path fill="none" stroke="none"/><text fill="#000000" stroke="none" font-family="Arial" font-size="13px" font-style="normal" font-weight="bold" text-decoration="none" x="152.430419921875" y="621.5">HP</text></g></g><g transform="translate(-46,-38) scale(1,1)"><path fill="none" stroke="#000000" d="M 177 601 L 225 533" stroke-miterlimit="10"/></g><g transform="translate(-46,-38) scale(1,1)"><path fill="#FFFFFF" stroke="none" d="M 220.1567937869146 554.4602738467506 L 225 533 L 206.40063088088476 544.7500412072002"/></g><g transform="translate(-46,-38) scale(1,1)"><path fill="none" stroke="#000000" d="M 220.1567937869146 554.4602738467506 L 225 533 L 206.40063088088476 544.7500412072002 L 220.1567937869146 554.4602738467506" stroke-miterlimit="10"/></g><g transform="translate(-46,-38) scale(1,1)"><rect fill="#C0C0C0" stroke="none" x="203.919921875" y="609" width="50.919921875" height="44" opacity="0.2"/></g><g transform="translate(-46,-38) scale(1,1)"><rect fill="#ffffff" stroke="none" x="196.919921875" y="602" width="50.919921875" height="44"/></g><g transform="translate(-46,-38) scale(1,1)"><path fill="none" stroke="#000000" d="M 196.919921875 602 L 247.83984375 602 L 247.83984375 646 L 196.919921875 646 L 196.919921875 602 Z Z" stroke-miterlimit="10"/></g><g transform="translate(-46,-38) scale(1,1)"><path fill="none" stroke="#000000" d="M 196.919921875 627 L 247.83984375 627" stroke-miterlimit="10"/></g><g transform="translate(-46,-38) scale(1,1)"><path fill="none" stroke="#000000" d="M 196.919921875 637 L 247.83984375 637" stroke-miterlimit="10"/></g><g transform="translate(-46,-38) scale(1,1)"><g><path fill="none" stroke="none"/><text fill="#000000" stroke="none" font-family="Arial" font-size="13px" font-style="normal" font-weight="bold" text-decoration="none" x="211.1826171875" y="621.5">Dell</text></g></g><g transform="translate(-46,-38) scale(1,1)"><path fill="none" stroke="#000000" d="M 226 601 L 237 533" stroke-miterlimit="10"/></g><g transform="translate(-46,-38) scale(1,1)"><path fill="#FFFFFF" stroke="none" d="M 242.06526578812586 554.408948654608 L 237 533 L 225.44327101554808 551.7200965590439"/></g><g transform="translate(-46,-38) scale(1,1)"><path fill="none" stroke="#000000" d="M 242.06526578812586 554.408948654608 L 237 533 L 225.44327101554808 551.7200965590439 L 242.06526578812586 554.408948654608" stroke-miterlimit="10"/></g><g transform="translate(-46,-38) scale(1,1)"><rect fill="#C0C0C0" stroke="none" x="264.83984375" y="609" width="71.841796875" height="44" opacity="0.2"/></g><g transform="translate(-46,-38) scale(1,1)"><rect fill="#ffffff" stroke="none" x="257.83984375" y="602" width="71.841796875" height="44"/></g><g transform="translate(-46,-38) scale(1,1)"><path fill="none" stroke="#000000" d="M 257.83984375 602 L 329.681640625 602 L 329.681640625 646 L 257.83984375 646 L 257.83984375 602 Z Z" stroke-miterlimit="10"/></g><g transform="translate(-46,-38) scale(1,1)"><path fill="none" stroke="#000000" d="M 257.83984375 627 L 329.681640625 627" stroke-miterlimit="10"/></g><g transform="translate(-46,-38) scale(1,1)"><path fill="none" stroke="#000000" d="M 257.83984375 637 L 329.681640625 637" stroke-miterlimit="10"/></g><g transform="translate(-46,-38) scale(1,1)"><g><path fill="none" stroke="none"/><text fill="#000000" stroke="none" font-family="Arial" font-size="13px" font-style="normal" font-weight="bold" text-decoration="none" x="268.830322265625" y="621.5">OnePlus</text></g></g><g transform="translate(-46,-38) scale(1,1)"><path fill="none" stroke="#000000" d="M 283 601 L 251 533" stroke-miterlimit="10"/></g><g transform="translate(-46,-38) scale(1,1)"><path fill="#FFFFFF" stroke="none" d="M 267.27217445690195 547.805956181353 L 251 533 L 252.03677288534024 554.9755569209116"/></g><g transform="translate(-46,-38) scale(1,1)"><path fill="none" stroke="#000000" d="M 267.27217445690195 547.805956181353 L 251 533 L 252.03677288534024 554.9755569209116 L 267.27217445690195 547.805956181353" stroke-miterlimit="10"/></g><g transform="translate(-46,-38) scale(1,1)"><rect fill="#C0C0C0" stroke="none" x="375" y="599" width="50.919921875" height="44" opacity="0.2"/></g><g transform="translate(-46,-38) scale(1,1)"><rect fill="#ffffff" stroke="none" x="368" y="592" width="50.919921875" height="44"/></g><g transform="translate(-46,-38) scale(1,1)"><path fill="none" stroke="#000000" d="M 368 592 L 418.919921875 592 L 418.919921875 636 L 368 636 L 368 592 Z Z" stroke-miterlimit="10"/></g><g transform="translate(-46,-38) scale(1,1)"><path fill="none" stroke="#000000" d="M 368 617 L 418.919921875 617" stroke-miterlimit="10"/></g><g transform="translate(-46,-38) scale(1,1)"><path fill="none" stroke="#000000" d="M 368 627 L 418.919921875 627" stroke-miterlimit="10"/></g><g transform="translate(-46,-38) scale(1,1)"><g><path fill="none" stroke="none"/><text fill="#000000" stroke="none" font-family="Arial" font-size="13px" font-style="normal" font-weight="bold" text-decoration="none" x="376.841796875" y="611.5">Nokia</text></g></g><g transform="translate(-46,-38) scale(1,1)"><path fill="none" stroke="#000000" d="M 367 596 L 268 528" stroke-miterlimit="10"/></g><g transform="translate(-46,-38) scale(1,1)"><path fill="#FFFFFF" stroke="none" d="M 289.5205273929175 532.5680302900362 L 268 528 L 279.98722565949265 546.4473960489929"/></g><g transform="translate(-46,-38) scale(1,1)"><path fill="none" stroke="#000000" d="M 289.5205273929175 532.5680302900362 L 268 528 L 279.98722565949265 546.4473960489929 L 289.5205273929175 532.5680302900362" stroke-miterlimit="10"/></g></g></svg>